<?xml version="1.0" encoding="UTF-8" standalone="no"?>
<!DOCTYPE svg PUBLIC "-//W3C//DTD SVG 1.1//EN"
 "http://www.w3.org/Graphics/SVG/1.1/DTD/svg11.dtd">
<!-- Generated by graphviz version 2.43.0 (0)
 -->
<!-- Title: TestLockPointValidity Pages: 1 -->
<svg width="264pt" height="142pt"
 viewBox="0.00 0.00 264.00 142.00" xmlns="http://www.w3.org/2000/svg" xmlns:xlink="http://www.w3.org/1999/xlink">
<g id="graph0" class="graph" transform="scale(1 1) rotate(0) translate(4 138)">
<title>TestLockPointValidity</title>
<polygon fill="white" stroke="transparent" points="-4,4 -4,-138 260,-138 260,4 -4,4"/>
<!-- Node1 -->
<g id="node1" class="node">
<title>Node1</title>
<g id="a_node1"><a xlink:title="Test whether the LockPoints height and time are still valid on the current chain.">
<polygon fill="#bfbfbf" stroke="black" points="0,-57.5 0,-76.5 120,-76.5 120,-57.5 0,-57.5"/>
<text text-anchor="middle" x="60" y="-64.5" font-family="Helvetica,sans-Serif" font-size="10.00">TestLockPointValidity</text>
</a>
</g>
</g>
<!-- Node2 -->
<g id="node2" class="node">
<title>Node2</title>
<g id="a_node2"><a xlink:href="validation_8cpp.html#ac8ee8d7d7e9865fc39098f51016c8e2e" target="_top" xlink:title=" ">
<polygon fill="white" stroke="black" points="182.5,-114.5 182.5,-133.5 229.5,-133.5 229.5,-114.5 182.5,-114.5"/>
<text text-anchor="middle" x="206" y="-121.5" font-family="Helvetica,sans-Serif" font-size="10.00">assert</text>
</a>
</g>
</g>
<!-- Node1&#45;&gt;Node2 -->
<g id="edge1" class="edge">
<title>Node1&#45;&gt;Node2</title>
<path fill="none" stroke="midnightblue" d="M84.79,-76.6C103.99,-84.32 131.7,-95.43 156,-105 161.31,-107.09 166.94,-109.29 172.43,-111.43"/>
<polygon fill="midnightblue" stroke="midnightblue" points="171.46,-114.8 182.05,-115.16 173.99,-108.28 171.46,-114.8"/>
</g>
<!-- Node3 -->
<g id="node3" class="node">
<title>Node3</title>
<g id="a_node3"><a xlink:href="validation_8cpp.html#a931de715d39c169c58d851ee23e8b1f1" target="_top" xlink:title=" ">
<polygon fill="white" stroke="black" points="160,-76.5 160,-95.5 252,-95.5 252,-76.5 160,-76.5"/>
<text text-anchor="middle" x="206" y="-83.5" font-family="Helvetica,sans-Serif" font-size="10.00">AssertLockHeld</text>
</a>
</g>
</g>
<!-- Node1&#45;&gt;Node3 -->
<g id="edge2" class="edge">
<title>Node1&#45;&gt;Node3</title>
<path fill="none" stroke="midnightblue" d="M120.4,-74.84C130.07,-76.11 140.06,-77.43 149.63,-78.69"/>
<polygon fill="midnightblue" stroke="midnightblue" points="149.45,-82.2 159.82,-80.04 150.36,-75.26 149.45,-82.2"/>
</g>
<!-- Node4 -->
<g id="node4" class="node">
<title>Node4</title>
<g id="a_node4"><a xlink:href="validation_8cpp.html#a7bdc4b2134378a3525f6aefb937967b0" target="_top" xlink:title="Please prefer the identical ChainstateManager::ActiveChain.">
<polygon fill="white" stroke="black" points="168.5,-38.5 168.5,-57.5 243.5,-57.5 243.5,-38.5 168.5,-38.5"/>
<text text-anchor="middle" x="206" y="-45.5" font-family="Helvetica,sans-Serif" font-size="10.00">ChainActive</text>
</a>
</g>
</g>
<!-- Node1&#45;&gt;Node4 -->
<g id="edge3" class="edge">
<title>Node1&#45;&gt;Node4</title>
<path fill="none" stroke="midnightblue" d="M120.4,-59.16C132.99,-57.5 146.1,-55.77 158.14,-54.18"/>
<polygon fill="midnightblue" stroke="midnightblue" points="158.95,-57.61 168.4,-52.83 158.03,-50.67 158.95,-57.61"/>
</g>
<!-- Node5 -->
<g id="node5" class="node">
<title>Node5</title>
<g id="a_node5"><a xlink:href="class_c_chain.html#af1786dc229c215dea7f727c11df2c8dc" target="_top" xlink:title="Efficiently check whether a block is present in this chain.">
<polygon fill="white" stroke="black" points="156,-0.5 156,-19.5 256,-19.5 256,-0.5 156,-0.5"/>
<text text-anchor="middle" x="206" y="-7.5" font-family="Helvetica,sans-Serif" font-size="10.00">CChain::Contains</text>
</a>
</g>
</g>
<!-- Node1&#45;&gt;Node5 -->
<g id="edge4" class="edge">
<title>Node1&#45;&gt;Node5</title>
<path fill="none" stroke="midnightblue" d="M84.79,-57.4C103.99,-49.68 131.7,-38.57 156,-29 160.81,-27.11 165.89,-25.12 170.89,-23.17"/>
<polygon fill="midnightblue" stroke="midnightblue" points="172.25,-26.4 180.3,-19.52 169.72,-19.87 172.25,-26.4"/>
</g>
</g>
</svg>
