<?xml version="1.0" encoding="UTF-8" standalone="no"?>
<!DOCTYPE svg PUBLIC "-//W3C//DTD SVG 1.1//EN"
 "http://www.w3.org/Graphics/SVG/1.1/DTD/svg11.dtd">
<!-- Generated by graphviz version 2.43.0 (0)
 -->
<!-- Title: src/qt Pages: 1 -->
<svg width="626pt" height="751pt"
 viewBox="0.00 0.00 626.00 751.00" xmlns="http://www.w3.org/2000/svg" xmlns:xlink="http://www.w3.org/1999/xlink">
<g id="graph0" class="graph" transform="scale(1 1) rotate(0) translate(4 747)">
<title>src/qt</title>
<polygon fill="white" stroke="transparent" points="-4,4 -4,-747 622,-747 622,4 -4,4"/>
<g id="clust1" class="cluster">
<title>clusterdir_68267d1309a1af8e8297ef4c3efbcdba</title>
<g id="a_clust1"><a xlink:href="dir_68267d1309a1af8e8297ef4c3efbcdba.html" target="_top" xlink:title="src">
<polygon fill="#ddddee" stroke="black" points="8,-8 8,-735 610,-735 610,-8 8,-8"/>
<text text-anchor="middle" x="309" y="-723" font-family="Helvetica,sans-Serif" font-size="10.00">src</text>
</a>
</g>
</g>
<g id="clust2" class="cluster">
<title>clusterdir_f0c29a9f5764d78706f34c972e8114d8</title>
<g id="a_clust2"><a xlink:href="dir_f0c29a9f5764d78706f34c972e8114d8.html" target="_top">
<polygon fill="#eeeeff" stroke="black" points="16,-584 16,-708 158,-708 158,-584 16,-584"/>
</a>
</g>
</g>
<!-- dir_021c64f412f6b3b6708367bb6d6ca209 -->
<g id="node1" class="node">
<title>dir_021c64f412f6b3b6708367bb6d6ca209</title>
<g id="a_node1"><a xlink:href="dir_021c64f412f6b3b6708367bb6d6ca209.html" target="_top" xlink:title="support">
<polygon fill="white" stroke="red" points="270,-340 216,-340 216,-304 270,-304 270,-340"/>
<text text-anchor="middle" x="243" y="-319.5" font-family="Helvetica,sans-Serif" font-size="10.00">support</text>
</a>
</g>
</g>
<!-- dir_18ae7af74d885898b85cbb543ae51b63 -->
<g id="node2" class="node">
<title>dir_18ae7af74d885898b85cbb543ae51b63</title>
<g id="a_node2"><a xlink:href="dir_18ae7af74d885898b85cbb543ae51b63.html" target="_top" xlink:title="node">
<polygon fill="none" stroke="black" points="224,-556 170,-556 170,-520 224,-520 224,-556"/>
<text text-anchor="middle" x="197" y="-535.5" font-family="Helvetica,sans-Serif" font-size="10.00">node</text>
</a>
</g>
</g>
<!-- dir_18ae7af74d885898b85cbb543ae51b63&#45;&gt;dir_021c64f412f6b3b6708367bb6d6ca209 -->
<g id="edge21" class="edge">
<title>dir_18ae7af74d885898b85cbb543ae51b63&#45;&gt;dir_021c64f412f6b3b6708367bb6d6ca209</title>
<path fill="none" stroke="black" d="M200.69,-519.85C208.66,-482.75 227.56,-394.81 237.17,-350.1"/>
<polygon fill="black" stroke="black" points="240.62,-350.74 239.3,-340.23 233.77,-349.27 240.62,-350.74"/>
<g id="a_edge21&#45;headlabel"><a xlink:href="dir_000017_000007.html" target="_top" xlink:title="1">
<text text-anchor="middle" x="242.64" y="-352.36" font-family="Helvetica,sans-Serif" font-size="10.00">1</text>
</a>
</g>
</g>
<!-- dir_1d8fd1f10602b1b3ec6e7b702d4ec182 -->
<g id="node3" class="node">
<title>dir_1d8fd1f10602b1b3ec6e7b702d4ec182</title>
<g id="a_node3"><a xlink:href="dir_1d8fd1f10602b1b3ec6e7b702d4ec182.html" target="_top" xlink:title="rpc">
<polygon fill="none" stroke="black" points="434,-484 380,-484 380,-448 434,-448 434,-484"/>
<text text-anchor="middle" x="407" y="-463.5" font-family="Helvetica,sans-Serif" font-size="10.00">rpc</text>
</a>
</g>
</g>
<!-- dir_18ae7af74d885898b85cbb543ae51b63&#45;&gt;dir_1d8fd1f10602b1b3ec6e7b702d4ec182 -->
<g id="edge22" class="edge">
<title>dir_18ae7af74d885898b85cbb543ae51b63&#45;&gt;dir_1d8fd1f10602b1b3ec6e7b702d4ec182</title>
<path fill="none" stroke="black" d="M224.32,-526.22C261.67,-513 328.42,-490.75 370.15,-477.61"/>
<polygon fill="black" stroke="black" points="371.43,-480.88 379.93,-474.56 369.34,-474.2 371.43,-480.88"/>
<g id="a_edge22&#45;headlabel"><a xlink:href="dir_000017_000013.html" target="_top" xlink:title="2">
<text text-anchor="middle" x="368.84" y="-482.16" font-family="Helvetica,sans-Serif" font-size="10.00">2</text>
</a>
</g>
</g>
<!-- dir_6330efc4ea07ccf3cc823ae31c630b06 -->
<g id="node4" class="node">
<title>dir_6330efc4ea07ccf3cc823ae31c630b06</title>
<g id="a_node4"><a xlink:href="dir_6330efc4ea07ccf3cc823ae31c630b06.html" target="_top" xlink:title="univalue">
<polygon fill="white" stroke="red" points="306.5,-196 247.5,-196 247.5,-160 306.5,-160 306.5,-196"/>
<text text-anchor="middle" x="277" y="-175.5" font-family="Helvetica,sans-Serif" font-size="10.00">univalue</text>
</a>
</g>
</g>
<!-- dir_18ae7af74d885898b85cbb543ae51b63&#45;&gt;dir_6330efc4ea07ccf3cc823ae31c630b06 -->
<g id="edge23" class="edge">
<title>dir_18ae7af74d885898b85cbb543ae51b63&#45;&gt;dir_6330efc4ea07ccf3cc823ae31c630b06</title>
<path fill="none" stroke="black" d="M185.03,-519.69C178.8,-509.72 171.72,-496.68 168,-484 145.5,-407.22 139.33,-377.48 171,-304 188.48,-263.45 223.73,-226.12 248.77,-203.01"/>
<polygon fill="black" stroke="black" points="251.43,-205.33 256.51,-196.03 246.74,-200.13 251.43,-205.33"/>
<g id="a_edge23&#45;headlabel"><a xlink:href="dir_000017_000038.html" target="_top" xlink:title="1">
<text text-anchor="middle" x="250.67" y="-207.34" font-family="Helvetica,sans-Serif" font-size="10.00">1</text>
</a>
</g>
</g>
<!-- dir_b7878ad5ecbf2506f4125b9d34c97e45 -->
<g id="node5" class="node">
<title>dir_b7878ad5ecbf2506f4125b9d34c97e45</title>
<g id="a_node5"><a xlink:href="dir_b7878ad5ecbf2506f4125b9d34c97e45.html" target="_top" xlink:title="util">
<polygon fill="none" stroke="black" points="350,-268 296,-268 296,-232 350,-232 350,-268"/>
<text text-anchor="middle" x="323" y="-247.5" font-family="Helvetica,sans-Serif" font-size="10.00">util</text>
</a>
</g>
</g>
<!-- dir_18ae7af74d885898b85cbb543ae51b63&#45;&gt;dir_b7878ad5ecbf2506f4125b9d34c97e45 -->
<g id="edge24" class="edge">
<title>dir_18ae7af74d885898b85cbb543ae51b63&#45;&gt;dir_b7878ad5ecbf2506f4125b9d34c97e45</title>
<path fill="none" stroke="black" d="M190.54,-519.93C176.13,-478.71 146.09,-372.1 192,-304 212.82,-273.11 255.03,-260.22 285.93,-254.84"/>
<polygon fill="black" stroke="black" points="286.58,-258.28 295.92,-253.29 285.51,-251.37 286.58,-258.28"/>
<g id="a_edge24&#45;headlabel"><a xlink:href="dir_000017_000021.html" target="_top" xlink:title="7">
<text text-anchor="middle" x="283.46" y="-259.14" font-family="Helvetica,sans-Serif" font-size="10.00">7</text>
</a>
</g>
</g>
<!-- dir_bbf56bce9985720f86fc476f3812db24 -->
<g id="node6" class="node">
<title>dir_bbf56bce9985720f86fc476f3812db24</title>
<g id="a_node6"><a xlink:href="dir_bbf56bce9985720f86fc476f3812db24.html" target="_top" xlink:title="primitives">
<polygon fill="none" stroke="black" points="381,-52 315,-52 315,-16 381,-16 381,-52"/>
<text text-anchor="middle" x="348" y="-31.5" font-family="Helvetica,sans-Serif" font-size="10.00">primitives</text>
</a>
</g>
</g>
<!-- dir_18ae7af74d885898b85cbb543ae51b63&#45;&gt;dir_bbf56bce9985720f86fc476f3812db24 -->
<g id="edge25" class="edge">
<title>dir_18ae7af74d885898b85cbb543ae51b63&#45;&gt;dir_bbf56bce9985720f86fc476f3812db24</title>
<path fill="none" stroke="black" d="M171.29,-519.75C126.06,-487.12 37,-411.6 37,-323 37,-323 37,-323 37,-177 37,-60.76 218.99,-39.27 304.54,-35.58"/>
<polygon fill="black" stroke="black" points="304.85,-39.07 314.72,-35.21 304.6,-32.08 304.85,-39.07"/>
<g id="a_edge25&#45;headlabel"><a xlink:href="dir_000017_000018.html" target="_top" xlink:title="3">
<text text-anchor="middle" x="301.36" y="-39.54" font-family="Helvetica,sans-Serif" font-size="10.00">3</text>
</a>
</g>
</g>
<!-- dir_dee301ab18d354d094fb7852349ef839 -->
<g id="node7" class="node">
<title>dir_dee301ab18d354d094fb7852349ef839</title>
<g id="a_node7"><a xlink:href="dir_dee301ab18d354d094fb7852349ef839.html" target="_top" xlink:title="consensus">
<polygon fill="none" stroke="black" points="471,-124 403,-124 403,-88 471,-88 471,-124"/>
<text text-anchor="middle" x="437" y="-103.5" font-family="Helvetica,sans-Serif" font-size="10.00">consensus</text>
</a>
</g>
</g>
<!-- dir_18ae7af74d885898b85cbb543ae51b63&#45;&gt;dir_dee301ab18d354d094fb7852349ef839 -->
<g id="edge26" class="edge">
<title>dir_18ae7af74d885898b85cbb543ae51b63&#45;&gt;dir_dee301ab18d354d094fb7852349ef839</title>
<path fill="none" stroke="black" d="M178.65,-519.57C169.7,-509.96 159.67,-497.3 154,-484 110.07,-380.95 108.52,-332 159,-232 202.57,-145.68 325.57,-118.9 392.42,-110.64"/>
<polygon fill="black" stroke="black" points="393.11,-114.09 402.64,-109.47 392.31,-107.13 393.11,-114.09"/>
<g id="a_edge26&#45;headlabel"><a xlink:href="dir_000017_000011.html" target="_top" xlink:title="2">
<text text-anchor="middle" x="389.86" y="-114.82" font-family="Helvetica,sans-Serif" font-size="10.00">2</text>
</a>
</g>
</g>
<!-- dir_ee3f1a7951c308657a65f8199076c1d6 -->
<g id="node9" class="node">
<title>dir_ee3f1a7951c308657a65f8199076c1d6</title>
<g id="a_node9"><a xlink:href="dir_ee3f1a7951c308657a65f8199076c1d6.html" target="_top" xlink:title="interfaces">
<polygon fill="none" stroke="black" points="321.5,-412 256.5,-412 256.5,-376 321.5,-376 321.5,-412"/>
<text text-anchor="middle" x="289" y="-391.5" font-family="Helvetica,sans-Serif" font-size="10.00">interfaces</text>
</a>
</g>
</g>
<!-- dir_18ae7af74d885898b85cbb543ae51b63&#45;&gt;dir_ee3f1a7951c308657a65f8199076c1d6 -->
<g id="edge27" class="edge">
<title>dir_18ae7af74d885898b85cbb543ae51b63&#45;&gt;dir_ee3f1a7951c308657a65f8199076c1d6</title>
<path fill="none" stroke="black" d="M208.1,-519.87C224.05,-495.24 253.6,-449.64 272.23,-420.88"/>
<polygon fill="black" stroke="black" points="275.36,-422.48 277.86,-412.19 269.49,-418.68 275.36,-422.48"/>
<g id="a_edge27&#45;headlabel"><a xlink:href="dir_000017_000008.html" target="_top" xlink:title="5">
<text text-anchor="middle" x="275.79" y="-424.55" font-family="Helvetica,sans-Serif" font-size="10.00">5</text>
</a>
</g>
</g>
<!-- dir_f9a362818448b8ef6661813ae65d7e79 -->
<g id="node10" class="node">
<title>dir_f9a362818448b8ef6661813ae65d7e79</title>
<g id="a_node10"><a xlink:href="dir_f9a362818448b8ef6661813ae65d7e79.html" target="_top" xlink:title="policy">
<polygon fill="none" stroke="black" points="477,-196 423,-196 423,-160 477,-160 477,-196"/>
<text text-anchor="middle" x="450" y="-175.5" font-family="Helvetica,sans-Serif" font-size="10.00">policy</text>
</a>
</g>
</g>
<!-- dir_18ae7af74d885898b85cbb543ae51b63&#45;&gt;dir_f9a362818448b8ef6661813ae65d7e79 -->
<g id="edge28" class="edge">
<title>dir_18ae7af74d885898b85cbb543ae51b63&#45;&gt;dir_f9a362818448b8ef6661813ae65d7e79</title>
<path fill="none" stroke="black" d="M195.2,-519.97C190.49,-471.92 179.98,-336.69 207,-304 251.22,-250.48 298.19,-301.49 359,-268 387.92,-252.07 414.08,-224.42 430.85,-204.15"/>
<polygon fill="black" stroke="black" points="433.68,-206.23 437.23,-196.25 428.23,-201.83 433.68,-206.23"/>
<g id="a_edge28&#45;headlabel"><a xlink:href="dir_000017_000020.html" target="_top" xlink:title="9">
<text text-anchor="middle" x="433.63" y="-208.31" font-family="Helvetica,sans-Serif" font-size="10.00">9</text>
</a>
</g>
</g>
<!-- dir_1d8fd1f10602b1b3ec6e7b702d4ec182&#45;&gt;dir_18ae7af74d885898b85cbb543ae51b63 -->
<g id="edge43" class="edge">
<title>dir_1d8fd1f10602b1b3ec6e7b702d4ec182&#45;&gt;dir_18ae7af74d885898b85cbb543ae51b63</title>
<path fill="none" stroke="black" d="M379.95,-477.69C342.72,-490.87 275.92,-513.13 234.08,-526.31"/>
<polygon fill="black" stroke="black" points="232.78,-523.05 224.28,-529.38 234.86,-529.73 232.78,-523.05"/>
<g id="a_edge43&#45;headlabel"><a xlink:href="dir_000013_000017.html" target="_top" xlink:title="14">
<text text-anchor="middle" x="235.36" y="-516.77" font-family="Helvetica,sans-Serif" font-size="10.00">14</text>
</a>
</g>
</g>
<!-- dir_1d8fd1f10602b1b3ec6e7b702d4ec182&#45;&gt;dir_6330efc4ea07ccf3cc823ae31c630b06 -->
<g id="edge44" class="edge">
<title>dir_1d8fd1f10602b1b3ec6e7b702d4ec182&#45;&gt;dir_6330efc4ea07ccf3cc823ae31c630b06</title>
<path fill="none" stroke="black" d="M392.91,-447.86C366.94,-415.19 311.88,-340.75 287,-268 280.18,-248.05 277.78,-224.26 277.03,-206.29"/>
<polygon fill="black" stroke="black" points="280.52,-206.11 276.75,-196.21 273.53,-206.3 280.52,-206.11"/>
<g id="a_edge44&#45;headlabel"><a xlink:href="dir_000013_000038.html" target="_top" xlink:title="10">
<text text-anchor="middle" x="283.46" y="-207.13" font-family="Helvetica,sans-Serif" font-size="10.00">10</text>
</a>
</g>
</g>
<!-- dir_1d8fd1f10602b1b3ec6e7b702d4ec182&#45;&gt;dir_b7878ad5ecbf2506f4125b9d34c97e45 -->
<g id="edge45" class="edge">
<title>dir_1d8fd1f10602b1b3ec6e7b702d4ec182&#45;&gt;dir_b7878ad5ecbf2506f4125b9d34c97e45</title>
<path fill="none" stroke="black" d="M402.58,-447.63C394.66,-417.62 376.74,-354.43 354,-304 349.88,-294.87 344.61,-285.29 339.58,-276.84"/>
<polygon fill="black" stroke="black" points="342.49,-274.88 334.29,-268.17 336.52,-278.53 342.49,-274.88"/>
<g id="a_edge45&#45;headlabel"><a xlink:href="dir_000013_000021.html" target="_top" xlink:title="32">
<text text-anchor="middle" x="346.79" y="-273.97" font-family="Helvetica,sans-Serif" font-size="10.00">32</text>
</a>
</g>
</g>
<!-- dir_1d8fd1f10602b1b3ec6e7b702d4ec182&#45;&gt;dir_bbf56bce9985720f86fc476f3812db24 -->
<g id="edge46" class="edge">
<title>dir_1d8fd1f10602b1b3ec6e7b702d4ec182&#45;&gt;dir_bbf56bce9985720f86fc476f3812db24</title>
<path fill="none" stroke="black" d="M404.65,-447.88C395.58,-381.8 362.83,-143.08 351.72,-62.1"/>
<polygon fill="black" stroke="black" points="355.18,-61.6 350.36,-52.17 348.25,-62.55 355.18,-61.6"/>
<g id="a_edge46&#45;headlabel"><a xlink:href="dir_000013_000018.html" target="_top" xlink:title="3">
<text text-anchor="middle" x="358.48" y="-62.28" font-family="Helvetica,sans-Serif" font-size="10.00">3</text>
</a>
</g>
</g>
<!-- dir_1d8fd1f10602b1b3ec6e7b702d4ec182&#45;&gt;dir_dee301ab18d354d094fb7852349ef839 -->
<g id="edge47" class="edge">
<title>dir_1d8fd1f10602b1b3ec6e7b702d4ec182&#45;&gt;dir_dee301ab18d354d094fb7852349ef839</title>
<path fill="none" stroke="black" d="M407.01,-447.87C407.09,-387.7 407.84,-188.06 414,-160 415.98,-150.99 419.51,-141.61 423.21,-133.29"/>
<polygon fill="black" stroke="black" points="426.45,-134.63 427.57,-124.09 420.12,-131.64 426.45,-134.63"/>
<g id="a_edge47&#45;headlabel"><a xlink:href="dir_000013_000011.html" target="_top" xlink:title="5">
<text text-anchor="middle" x="427.48" y="-136.59" font-family="Helvetica,sans-Serif" font-size="10.00">5</text>
</a>
</g>
</g>
<!-- dir_1d8fd1f10602b1b3ec6e7b702d4ec182&#45;&gt;dir_ee3f1a7951c308657a65f8199076c1d6 -->
<g id="edge48" class="edge">
<title>dir_1d8fd1f10602b1b3ec6e7b702d4ec182&#45;&gt;dir_ee3f1a7951c308657a65f8199076c1d6</title>
<path fill="none" stroke="black" d="M379.93,-448.94C364.17,-439.59 344.06,-427.66 326.76,-417.4"/>
<polygon fill="black" stroke="black" points="328.39,-414.3 318.01,-412.21 324.82,-420.32 328.39,-414.3"/>
<g id="a_edge48&#45;headlabel"><a xlink:href="dir_000013_000008.html" target="_top" xlink:title="1">
<text text-anchor="middle" x="332.93" y="-411.19" font-family="Helvetica,sans-Serif" font-size="10.00">1</text>
</a>
</g>
</g>
<!-- dir_1d8fd1f10602b1b3ec6e7b702d4ec182&#45;&gt;dir_f9a362818448b8ef6661813ae65d7e79 -->
<g id="edge49" class="edge">
<title>dir_1d8fd1f10602b1b3ec6e7b702d4ec182&#45;&gt;dir_f9a362818448b8ef6661813ae65d7e79</title>
<path fill="none" stroke="black" d="M414.43,-447.65C418.5,-437.45 423.25,-424.2 426,-412 443.7,-333.57 435.48,-311.95 444,-232 444.9,-223.58 445.92,-214.42 446.86,-206.12"/>
<polygon fill="black" stroke="black" points="450.34,-206.51 448,-196.18 443.38,-205.72 450.34,-206.51"/>
<g id="a_edge49&#45;headlabel"><a xlink:href="dir_000013_000020.html" target="_top" xlink:title="9">
<text text-anchor="middle" x="452.75" y="-207.91" font-family="Helvetica,sans-Serif" font-size="10.00">9</text>
</a>
</g>
</g>
<!-- dir_fe414d616bd0c4668e6515f48824338f -->
<g id="node11" class="node">
<title>dir_fe414d616bd0c4668e6515f48824338f</title>
<g id="a_node11"><a xlink:href="dir_fe414d616bd0c4668e6515f48824338f.html" target="_top" xlink:title="script">
<polygon fill="none" stroke="black" points="522,-340 468,-340 468,-304 522,-304 522,-340"/>
<text text-anchor="middle" x="495" y="-319.5" font-family="Helvetica,sans-Serif" font-size="10.00">script</text>
</a>
</g>
</g>
<!-- dir_1d8fd1f10602b1b3ec6e7b702d4ec182&#45;&gt;dir_fe414d616bd0c4668e6515f48824338f -->
<g id="edge50" class="edge">
<title>dir_1d8fd1f10602b1b3ec6e7b702d4ec182&#45;&gt;dir_fe414d616bd0c4668e6515f48824338f</title>
<path fill="none" stroke="black" d="M420.59,-447.74C428.37,-437.57 438.12,-424.32 446,-412 459.07,-391.56 472.24,-367.4 481.63,-349.41"/>
<polygon fill="black" stroke="black" points="484.95,-350.6 486.43,-340.11 478.73,-347.39 484.95,-350.6"/>
<g id="a_edge50&#45;headlabel"><a xlink:href="dir_000013_000029.html" target="_top" xlink:title="16">
<text text-anchor="middle" x="485.82" y="-352.6" font-family="Helvetica,sans-Serif" font-size="10.00">16</text>
</a>
</g>
</g>
<!-- dir_6330efc4ea07ccf3cc823ae31c630b06&#45;&gt;dir_b7878ad5ecbf2506f4125b9d34c97e45 -->
<g id="edge13" class="edge">
<title>dir_6330efc4ea07ccf3cc823ae31c630b06&#45;&gt;dir_b7878ad5ecbf2506f4125b9d34c97e45</title>
<path fill="none" stroke="black" d="M294.14,-196.1C300.25,-204.13 306.87,-213.87 312.34,-222.8"/>
<polygon fill="black" stroke="black" points="309.47,-224.83 317.54,-231.7 315.52,-221.3 309.47,-224.83"/>
<g id="a_edge13&#45;headlabel"><a xlink:href="dir_000038_000021.html" target="_top" xlink:title="5">
<text text-anchor="middle" x="305.21" y="-220.66" font-family="Helvetica,sans-Serif" font-size="10.00">5</text>
</a>
</g>
</g>
<!-- dir_b7878ad5ecbf2506f4125b9d34c97e45&#45;&gt;dir_6330efc4ea07ccf3cc823ae31c630b06 -->
<g id="edge17" class="edge">
<title>dir_b7878ad5ecbf2506f4125b9d34c97e45&#45;&gt;dir_6330efc4ea07ccf3cc823ae31c630b06</title>
<path fill="none" stroke="black" d="M305.71,-231.7C299.59,-223.64 292.97,-213.89 287.53,-204.98"/>
<polygon fill="black" stroke="black" points="290.41,-202.98 282.34,-196.1 284.36,-206.51 290.41,-202.98"/>
<g id="a_edge17&#45;headlabel"><a xlink:href="dir_000021_000038.html" target="_top" xlink:title="2">
<text text-anchor="middle" x="294.67" y="-202.15" font-family="Helvetica,sans-Serif" font-size="10.00">2</text>
</a>
</g>
</g>
<!-- dir_b7878ad5ecbf2506f4125b9d34c97e45&#45;&gt;dir_bbf56bce9985720f86fc476f3812db24 -->
<g id="edge18" class="edge">
<title>dir_b7878ad5ecbf2506f4125b9d34c97e45&#45;&gt;dir_bbf56bce9985720f86fc476f3812db24</title>
<path fill="none" stroke="black" d="M321.13,-231.85C321.92,-194.75 331.92,-106.81 340.16,-62.1"/>
<polygon fill="black" stroke="black" points="343.61,-62.72 342.1,-52.23 336.74,-61.37 343.61,-62.72"/>
<g id="a_edge18&#45;headlabel"><a xlink:href="dir_000021_000018.html" target="_top" xlink:title="2">
<text text-anchor="middle" x="345.7" y="-64.29" font-family="Helvetica,sans-Serif" font-size="10.00">2</text>
</a>
</g>
</g>
<!-- dir_b7878ad5ecbf2506f4125b9d34c97e45&#45;&gt;dir_f9a362818448b8ef6661813ae65d7e79 -->
<g id="edge19" class="edge">
<title>dir_b7878ad5ecbf2506f4125b9d34c97e45&#45;&gt;dir_f9a362818448b8ef6661813ae65d7e79</title>
<path fill="none" stroke="black" d="M348.17,-231.88C366.98,-220.88 392.79,-206.65 413.79,-195.73"/>
<polygon fill="black" stroke="black" points="415.46,-198.81 422.75,-191.12 412.26,-192.58 415.46,-198.81"/>
<g id="a_edge19&#45;headlabel"><a xlink:href="dir_000021_000020.html" target="_top" xlink:title="1">
<text text-anchor="middle" x="413.56" y="-200.48" font-family="Helvetica,sans-Serif" font-size="10.00">1</text>
</a>
</g>
</g>
<!-- dir_b7878ad5ecbf2506f4125b9d34c97e45&#45;&gt;dir_fe414d616bd0c4668e6515f48824338f -->
<g id="edge20" class="edge">
<title>dir_b7878ad5ecbf2506f4125b9d34c97e45&#45;&gt;dir_fe414d616bd0c4668e6515f48824338f</title>
<path fill="none" stroke="black" d="M350.23,-260.16C379.43,-271.14 425.68,-289.8 458.1,-303.57"/>
<polygon fill="black" stroke="black" points="457.11,-306.95 467.68,-307.67 459.86,-300.52 457.11,-306.95"/>
<g id="a_edge20&#45;headlabel"><a xlink:href="dir_000021_000029.html" target="_top" xlink:title="1">
<text text-anchor="middle" x="452.69" y="-305.65" font-family="Helvetica,sans-Serif" font-size="10.00">1</text>
</a>
</g>
</g>
<!-- dir_bbf56bce9985720f86fc476f3812db24&#45;&gt;dir_b7878ad5ecbf2506f4125b9d34c97e45 -->
<g id="edge51" class="edge">
<title>dir_bbf56bce9985720f86fc476f3812db24&#45;&gt;dir_b7878ad5ecbf2506f4125b9d34c97e45</title>
<path fill="none" stroke="black" d="M349.87,-52.23C349.07,-89.4 339.05,-177.35 330.82,-222"/>
<polygon fill="black" stroke="black" points="327.38,-221.36 328.88,-231.85 334.25,-222.71 327.38,-221.36"/>
<g id="a_edge51&#45;headlabel"><a xlink:href="dir_000018_000021.html" target="_top" xlink:title="1">
<text text-anchor="middle" x="325.29" y="-214.79" font-family="Helvetica,sans-Serif" font-size="10.00">1</text>
</a>
</g>
</g>
<!-- dir_bbf56bce9985720f86fc476f3812db24&#45;&gt;dir_fe414d616bd0c4668e6515f48824338f -->
<g id="edge52" class="edge">
<title>dir_bbf56bce9985720f86fc476f3812db24&#45;&gt;dir_fe414d616bd0c4668e6515f48824338f</title>
<path fill="none" stroke="black" d="M381.01,-38.27C413.69,-43.43 462.15,-56.37 489,-88 538.85,-146.73 522.95,-246.68 507.77,-294.27"/>
<polygon fill="black" stroke="black" points="504.41,-293.27 504.46,-303.87 511.03,-295.55 504.41,-293.27"/>
<g id="a_edge52&#45;headlabel"><a xlink:href="dir_000018_000029.html" target="_top" xlink:title="1">
<text text-anchor="middle" x="502.9" y="-286.45" font-family="Helvetica,sans-Serif" font-size="10.00">1</text>
</a>
</g>
</g>
<!-- dir_dee301ab18d354d094fb7852349ef839&#45;&gt;dir_b7878ad5ecbf2506f4125b9d34c97e45 -->
<g id="edge53" class="edge">
<title>dir_dee301ab18d354d094fb7852349ef839&#45;&gt;dir_b7878ad5ecbf2506f4125b9d34c97e45</title>
<path fill="none" stroke="black" d="M423.2,-124.19C403.23,-149.06 366.15,-195.25 343.13,-223.93"/>
<polygon fill="black" stroke="black" points="340.28,-221.88 336.75,-231.87 345.74,-226.26 340.28,-221.88"/>
<g id="a_edge53&#45;headlabel"><a xlink:href="dir_000011_000021.html" target="_top" xlink:title="1">
<text text-anchor="middle" x="340.32" y="-214.8" font-family="Helvetica,sans-Serif" font-size="10.00">1</text>
</a>
</g>
</g>
<!-- dir_dee301ab18d354d094fb7852349ef839&#45;&gt;dir_bbf56bce9985720f86fc476f3812db24 -->
<g id="edge54" class="edge">
<title>dir_dee301ab18d354d094fb7852349ef839&#45;&gt;dir_bbf56bce9985720f86fc476f3812db24</title>
<path fill="none" stroke="black" d="M415,-87.7C403.79,-78.88 390,-68.03 377.85,-58.47"/>
<polygon fill="black" stroke="black" points="379.77,-55.54 369.75,-52.1 375.44,-61.04 379.77,-55.54"/>
<g id="a_edge54&#45;headlabel"><a xlink:href="dir_000011_000018.html" target="_top" xlink:title="5">
<text text-anchor="middle" x="384.35" y="-53.03" font-family="Helvetica,sans-Serif" font-size="10.00">5</text>
</a>
</g>
</g>
<!-- dir_dee301ab18d354d094fb7852349ef839&#45;&gt;dir_fe414d616bd0c4668e6515f48824338f -->
<g id="edge55" class="edge">
<title>dir_dee301ab18d354d094fb7852349ef839&#45;&gt;dir_fe414d616bd0c4668e6515f48824338f</title>
<path fill="none" stroke="black" d="M458.57,-124.03C468.81,-133.44 480.08,-146.04 486,-160 504.56,-203.77 502.46,-260.31 498.94,-293.42"/>
<polygon fill="black" stroke="black" points="495.42,-293.36 497.72,-303.7 502.37,-294.18 495.42,-293.36"/>
<g id="a_edge55&#45;headlabel"><a xlink:href="dir_000011_000029.html" target="_top" xlink:title="1">
<text text-anchor="middle" x="493.02" y="-286.95" font-family="Helvetica,sans-Serif" font-size="10.00">1</text>
</a>
</g>
</g>
<!-- dir_e91c81f9be83f649fcd1d8691438a113 -->
<g id="node8" class="node">
<title>dir_e91c81f9be83f649fcd1d8691438a113</title>
<g id="a_node8"><a xlink:href="dir_e91c81f9be83f649fcd1d8691438a113.html" target="_top" xlink:title="wallet">
<polygon fill="white" stroke="red" points="388,-628 334,-628 334,-592 388,-592 388,-628"/>
<text text-anchor="middle" x="361" y="-607.5" font-family="Helvetica,sans-Serif" font-size="10.00">wallet</text>
</a>
</g>
</g>
<!-- dir_e91c81f9be83f649fcd1d8691438a113&#45;&gt;dir_021c64f412f6b3b6708367bb6d6ca209 -->
<g id="edge29" class="edge">
<title>dir_e91c81f9be83f649fcd1d8691438a113&#45;&gt;dir_021c64f412f6b3b6708367bb6d6ca209</title>
<path fill="none" stroke="black" d="M347.25,-591.86C321.98,-559.2 268.84,-484.78 248,-412 242.22,-391.82 241.16,-368.05 241.44,-350.15"/>
<polygon fill="black" stroke="black" points="244.94,-350.2 241.75,-340.1 237.95,-349.99 244.94,-350.2"/>
<g id="a_edge29&#45;headlabel"><a xlink:href="dir_000015_000007.html" target="_top" xlink:title="3">
<text text-anchor="middle" x="247.67" y="-351.38" font-family="Helvetica,sans-Serif" font-size="10.00">3</text>
</a>
</g>
</g>
<!-- dir_e91c81f9be83f649fcd1d8691438a113&#45;&gt;dir_18ae7af74d885898b85cbb543ae51b63 -->
<g id="edge30" class="edge">
<title>dir_e91c81f9be83f649fcd1d8691438a113&#45;&gt;dir_18ae7af74d885898b85cbb543ae51b63</title>
<path fill="none" stroke="black" d="M333.92,-597.44C306.5,-585.74 263.92,-567.56 233.53,-554.59"/>
<polygon fill="black" stroke="black" points="234.69,-551.28 224.12,-550.58 231.94,-557.72 234.69,-551.28"/>
<g id="a_edge30&#45;headlabel"><a xlink:href="dir_000015_000017.html" target="_top" xlink:title="8">
<text text-anchor="middle" x="239.11" y="-547.58" font-family="Helvetica,sans-Serif" font-size="10.00">8</text>
</a>
</g>
</g>
<!-- dir_e91c81f9be83f649fcd1d8691438a113&#45;&gt;dir_1d8fd1f10602b1b3ec6e7b702d4ec182 -->
<g id="edge31" class="edge">
<title>dir_e91c81f9be83f649fcd1d8691438a113&#45;&gt;dir_1d8fd1f10602b1b3ec6e7b702d4ec182</title>
<path fill="none" stroke="black" d="M366.55,-591.87C374.42,-567.56 388.92,-522.82 398.25,-494.01"/>
<polygon fill="black" stroke="black" points="401.68,-494.78 401.43,-484.19 395.02,-492.62 401.68,-494.78"/>
<g id="a_edge31&#45;headlabel"><a xlink:href="dir_000015_000013.html" target="_top" xlink:title="6">
<text text-anchor="middle" x="403.27" y="-496.58" font-family="Helvetica,sans-Serif" font-size="10.00">6</text>
</a>
</g>
</g>
<!-- dir_e91c81f9be83f649fcd1d8691438a113&#45;&gt;dir_6330efc4ea07ccf3cc823ae31c630b06 -->
<g id="edge32" class="edge">
<title>dir_e91c81f9be83f649fcd1d8691438a113&#45;&gt;dir_6330efc4ea07ccf3cc823ae31c630b06</title>
<path fill="none" stroke="black" d="M333.97,-605.62C284.75,-598.87 183.51,-582.12 161,-556 87.86,-471.11 122.47,-411.82 153,-304 162.64,-269.95 163.14,-258.14 187,-232 201.03,-216.63 220.56,-204.39 237.85,-195.56"/>
<polygon fill="black" stroke="black" points="239.72,-198.55 247.17,-191.01 236.65,-192.26 239.72,-198.55"/>
<g id="a_edge32&#45;headlabel"><a xlink:href="dir_000015_000038.html" target="_top" xlink:title="7">
<text text-anchor="middle" x="237.74" y="-200.17" font-family="Helvetica,sans-Serif" font-size="10.00">7</text>
</a>
</g>
</g>
<!-- dir_e91c81f9be83f649fcd1d8691438a113&#45;&gt;dir_b7878ad5ecbf2506f4125b9d34c97e45 -->
<g id="edge33" class="edge">
<title>dir_e91c81f9be83f649fcd1d8691438a113&#45;&gt;dir_b7878ad5ecbf2506f4125b9d34c97e45</title>
<path fill="none" stroke="black" d="M359.17,-591.73C353.06,-534.19 333.37,-348.66 325.9,-278.35"/>
<polygon fill="black" stroke="black" points="329.35,-277.67 324.81,-268.09 322.39,-278.41 329.35,-277.67"/>
<g id="a_edge33&#45;headlabel"><a xlink:href="dir_000015_000021.html" target="_top" xlink:title="76">
<text text-anchor="middle" x="332.55" y="-278.44" font-family="Helvetica,sans-Serif" font-size="10.00">76</text>
</a>
</g>
</g>
<!-- dir_e91c81f9be83f649fcd1d8691438a113&#45;&gt;dir_bbf56bce9985720f86fc476f3812db24 -->
<g id="edge34" class="edge">
<title>dir_e91c81f9be83f649fcd1d8691438a113&#45;&gt;dir_bbf56bce9985720f86fc476f3812db24</title>
<path fill="none" stroke="black" d="M388.19,-605.15C418,-599.52 465.27,-586.2 493,-556 569.89,-472.25 544.84,-417.42 537,-304 530.26,-206.43 562.42,-158.84 495,-88 467.83,-59.45 424.16,-46.24 391.46,-40.15"/>
<polygon fill="black" stroke="black" points="391.71,-36.64 381.27,-38.41 390.54,-43.54 391.71,-36.64"/>
<g id="a_edge34&#45;headlabel"><a xlink:href="dir_000015_000018.html" target="_top" xlink:title="7">
<text text-anchor="middle" x="395.73" y="-31.94" font-family="Helvetica,sans-Serif" font-size="10.00">7</text>
</a>
</g>
</g>
<!-- dir_e91c81f9be83f649fcd1d8691438a113&#45;&gt;dir_dee301ab18d354d094fb7852349ef839 -->
<g id="edge35" class="edge">
<title>dir_e91c81f9be83f649fcd1d8691438a113&#45;&gt;dir_dee301ab18d354d094fb7852349ef839</title>
<path fill="none" stroke="black" d="M388.21,-603.66C415.15,-597 455.78,-583.04 480,-556 506.78,-526.1 528.7,-363.86 531,-340 538.81,-258.88 537.81,-229.96 496,-160 489.43,-149.01 479.85,-139.01 470.32,-130.74"/>
<polygon fill="black" stroke="black" points="472.33,-127.86 462.38,-124.21 467.88,-133.26 472.33,-127.86"/>
<g id="a_edge35&#45;headlabel"><a xlink:href="dir_000015_000011.html" target="_top" xlink:title="2">
<text text-anchor="middle" x="476.91" y="-125.45" font-family="Helvetica,sans-Serif" font-size="10.00">2</text>
</a>
</g>
</g>
<!-- dir_e91c81f9be83f649fcd1d8691438a113&#45;&gt;dir_ee3f1a7951c308657a65f8199076c1d6 -->
<g id="edge36" class="edge">
<title>dir_e91c81f9be83f649fcd1d8691438a113&#45;&gt;dir_ee3f1a7951c308657a65f8199076c1d6</title>
<path fill="none" stroke="black" d="M355.23,-591.85C342.72,-554.68 313.04,-466.44 298.02,-421.82"/>
<polygon fill="black" stroke="black" points="301.3,-420.59 294.8,-412.23 294.67,-422.83 301.3,-420.59"/>
<g id="a_edge36&#45;headlabel"><a xlink:href="dir_000015_000008.html" target="_top" xlink:title="18">
<text text-anchor="middle" x="305.14" y="-420.6" font-family="Helvetica,sans-Serif" font-size="10.00">18</text>
</a>
</g>
</g>
<!-- dir_e91c81f9be83f649fcd1d8691438a113&#45;&gt;dir_f9a362818448b8ef6661813ae65d7e79 -->
<g id="edge37" class="edge">
<title>dir_e91c81f9be83f649fcd1d8691438a113&#45;&gt;dir_f9a362818448b8ef6661813ae65d7e79</title>
<path fill="none" stroke="black" d="M377.06,-591.62C396.9,-568.88 429.66,-526.87 443,-484 458.96,-432.73 454.03,-271.33 451.29,-206.43"/>
<polygon fill="black" stroke="black" points="454.77,-206.01 450.84,-196.17 447.78,-206.31 454.77,-206.01"/>
<g id="a_edge37&#45;headlabel"><a xlink:href="dir_000015_000020.html" target="_top" xlink:title="15">
<text text-anchor="middle" x="457.77" y="-206.98" font-family="Helvetica,sans-Serif" font-size="10.00">15</text>
</a>
</g>
</g>
<!-- dir_e91c81f9be83f649fcd1d8691438a113&#45;&gt;dir_fe414d616bd0c4668e6515f48824338f -->
<g id="edge38" class="edge">
<title>dir_e91c81f9be83f649fcd1d8691438a113&#45;&gt;dir_fe414d616bd0c4668e6515f48824338f</title>
<path fill="none" stroke="black" d="M388.07,-602.92C412.54,-595.93 447.47,-581.91 466,-556 510.65,-493.55 505.3,-396.88 499.35,-350.14"/>
<polygon fill="black" stroke="black" points="502.81,-349.6 497.97,-340.17 495.88,-350.55 502.81,-349.6"/>
<g id="a_edge38&#45;headlabel"><a xlink:href="dir_000015_000029.html" target="_top" xlink:title="22">
<text text-anchor="middle" x="506.11" y="-350.27" font-family="Helvetica,sans-Serif" font-size="10.00">22</text>
</a>
</g>
</g>
<!-- dir_ee3f1a7951c308657a65f8199076c1d6&#45;&gt;dir_021c64f412f6b3b6708367bb6d6ca209 -->
<g id="edge39" class="edge">
<title>dir_ee3f1a7951c308657a65f8199076c1d6&#45;&gt;dir_021c64f412f6b3b6708367bb6d6ca209</title>
<path fill="none" stroke="black" d="M277.63,-375.7C272.28,-367.56 265.8,-357.69 259.89,-348.7"/>
<polygon fill="black" stroke="black" points="262.66,-346.54 254.24,-340.1 256.81,-350.38 262.66,-346.54"/>
<g id="a_edge39&#45;headlabel"><a xlink:href="dir_000008_000007.html" target="_top" xlink:title="2">
<text text-anchor="middle" x="267" y="-345.48" font-family="Helvetica,sans-Serif" font-size="10.00">2</text>
</a>
</g>
</g>
<!-- dir_ee3f1a7951c308657a65f8199076c1d6&#45;&gt;dir_b7878ad5ecbf2506f4125b9d34c97e45 -->
<g id="edge40" class="edge">
<title>dir_ee3f1a7951c308657a65f8199076c1d6&#45;&gt;dir_b7878ad5ecbf2506f4125b9d34c97e45</title>
<path fill="none" stroke="black" d="M293.1,-375.87C298.92,-351.56 309.63,-306.82 316.53,-278.01"/>
<polygon fill="black" stroke="black" points="319.96,-278.73 318.88,-268.19 313.15,-277.1 319.96,-278.73"/>
<g id="a_edge40&#45;headlabel"><a xlink:href="dir_000008_000021.html" target="_top" xlink:title="4">
<text text-anchor="middle" x="321.88" y="-280.39" font-family="Helvetica,sans-Serif" font-size="10.00">4</text>
</a>
</g>
</g>
<!-- dir_ee3f1a7951c308657a65f8199076c1d6&#45;&gt;dir_bbf56bce9985720f86fc476f3812db24 -->
<g id="edge41" class="edge">
<title>dir_ee3f1a7951c308657a65f8199076c1d6&#45;&gt;dir_bbf56bce9985720f86fc476f3812db24</title>
<path fill="none" stroke="black" d="M288.3,-375.73C287.28,-357.64 284.82,-328.51 279,-304 263.64,-239.38 215.69,-222.2 239,-160 254.57,-118.46 290.87,-81.65 317.32,-58.92"/>
<polygon fill="black" stroke="black" points="319.77,-61.43 325.18,-52.32 315.27,-56.07 319.77,-61.43"/>
<g id="a_edge41&#45;headlabel"><a xlink:href="dir_000008_000018.html" target="_top" xlink:title="1">
<text text-anchor="middle" x="318.84" y="-63.42" font-family="Helvetica,sans-Serif" font-size="10.00">1</text>
</a>
</g>
</g>
<!-- dir_ee3f1a7951c308657a65f8199076c1d6&#45;&gt;dir_fe414d616bd0c4668e6515f48824338f -->
<g id="edge42" class="edge">
<title>dir_ee3f1a7951c308657a65f8199076c1d6&#45;&gt;dir_fe414d616bd0c4668e6515f48824338f</title>
<path fill="none" stroke="black" d="M321.64,-381.91C358.72,-369.31 419.09,-348.8 457.91,-335.6"/>
<polygon fill="black" stroke="black" points="459.43,-338.78 467.77,-332.25 457.18,-332.15 459.43,-338.78"/>
<g id="a_edge42&#45;headlabel"><a xlink:href="dir_000008_000029.html" target="_top" xlink:title="1">
<text text-anchor="middle" x="456.94" y="-340.13" font-family="Helvetica,sans-Serif" font-size="10.00">1</text>
</a>
</g>
</g>
<!-- dir_f9a362818448b8ef6661813ae65d7e79&#45;&gt;dir_b7878ad5ecbf2506f4125b9d34c97e45 -->
<g id="edge56" class="edge">
<title>dir_f9a362818448b8ef6661813ae65d7e79&#45;&gt;dir_b7878ad5ecbf2506f4125b9d34c97e45</title>
<path fill="none" stroke="black" d="M424.85,-196.11C405.99,-207.14 380.08,-221.41 359.05,-232.35"/>
<polygon fill="black" stroke="black" points="357.37,-229.28 350.07,-236.97 360.57,-235.51 357.37,-229.28"/>
<g id="a_edge56&#45;headlabel"><a xlink:href="dir_000020_000021.html" target="_top" xlink:title="2">
<text text-anchor="middle" x="359.27" y="-222.61" font-family="Helvetica,sans-Serif" font-size="10.00">2</text>
</a>
</g>
</g>
<!-- dir_f9a362818448b8ef6661813ae65d7e79&#45;&gt;dir_dee301ab18d354d094fb7852349ef839 -->
<g id="edge57" class="edge">
<title>dir_f9a362818448b8ef6661813ae65d7e79&#45;&gt;dir_dee301ab18d354d094fb7852349ef839</title>
<path fill="none" stroke="black" d="M446.79,-159.7C445.35,-151.98 443.63,-142.71 442.04,-134.11"/>
<polygon fill="black" stroke="black" points="445.44,-133.3 440.18,-124.1 438.56,-134.58 445.44,-133.3"/>
<g id="a_edge57&#45;headlabel"><a xlink:href="dir_000020_000011.html" target="_top" xlink:title="2">
<text text-anchor="middle" x="448.89" y="-133.81" font-family="Helvetica,sans-Serif" font-size="10.00">2</text>
</a>
</g>
</g>
<!-- dir_f9a362818448b8ef6661813ae65d7e79&#45;&gt;dir_fe414d616bd0c4668e6515f48824338f -->
<g id="edge58" class="edge">
<title>dir_f9a362818448b8ef6661813ae65d7e79&#45;&gt;dir_fe414d616bd0c4668e6515f48824338f</title>
<path fill="none" stroke="black" d="M460.04,-196.19C470.32,-220.53 484.78,-265.28 491.89,-294.06"/>
<polygon fill="black" stroke="black" points="488.5,-294.92 494.16,-303.87 495.32,-293.34 488.5,-294.92"/>
<g id="a_edge58&#45;headlabel"><a xlink:href="dir_000020_000029.html" target="_top" xlink:title="2">
<text text-anchor="middle" x="484.92" y="-289.55" font-family="Helvetica,sans-Serif" font-size="10.00">2</text>
</a>
</g>
</g>
<!-- dir_fe414d616bd0c4668e6515f48824338f&#45;&gt;dir_b7878ad5ecbf2506f4125b9d34c97e45 -->
<g id="edge14" class="edge">
<title>dir_fe414d616bd0c4668e6515f48824338f&#45;&gt;dir_b7878ad5ecbf2506f4125b9d34c97e45</title>
<path fill="none" stroke="black" d="M467.78,-311.85C438.51,-300.83 392.08,-282.1 359.64,-268.32"/>
<polygon fill="black" stroke="black" points="360.63,-264.94 350.06,-264.22 357.87,-271.37 360.63,-264.94"/>
<g id="a_edge14&#45;headlabel"><a xlink:href="dir_000029_000021.html" target="_top" xlink:title="10">
<text text-anchor="middle" x="365.05" y="-261.24" font-family="Helvetica,sans-Serif" font-size="10.00">10</text>
</a>
</g>
</g>
<!-- dir_fe414d616bd0c4668e6515f48824338f&#45;&gt;dir_bbf56bce9985720f86fc476f3812db24 -->
<g id="edge15" class="edge">
<title>dir_fe414d616bd0c4668e6515f48824338f&#45;&gt;dir_bbf56bce9985720f86fc476f3812db24</title>
<path fill="none" stroke="black" d="M495.57,-303.87C502.26,-261.57 524.51,-151.04 471,-88 450.59,-63.96 417.71,-50.72 390.98,-43.48"/>
<polygon fill="black" stroke="black" points="391.63,-40.03 381.08,-40.99 389.92,-46.82 391.63,-40.03"/>
<g id="a_edge15&#45;headlabel"><a xlink:href="dir_000029_000018.html" target="_top" xlink:title="3">
<text text-anchor="middle" x="395.81" y="-35.66" font-family="Helvetica,sans-Serif" font-size="10.00">3</text>
</a>
</g>
</g>
<!-- dir_fe414d616bd0c4668e6515f48824338f&#45;&gt;dir_f9a362818448b8ef6661813ae65d7e79 -->
<g id="edge16" class="edge">
<title>dir_fe414d616bd0c4668e6515f48824338f&#45;&gt;dir_f9a362818448b8ef6661813ae65d7e79</title>
<path fill="none" stroke="black" d="M484.99,-303.87C474.71,-279.56 460.25,-234.82 453.13,-206.01"/>
<polygon fill="black" stroke="black" points="456.52,-205.14 450.86,-196.19 449.7,-206.72 456.52,-205.14"/>
<g id="a_edge16&#45;headlabel"><a xlink:href="dir_000029_000020.html" target="_top" xlink:title="1">
<text text-anchor="middle" x="460.1" y="-205.51" font-family="Helvetica,sans-Serif" font-size="10.00">1</text>
</a>
</g>
</g>
<!-- dir_f0c29a9f5764d78706f34c972e8114d8 -->
<g id="node12" class="node">
<title>dir_f0c29a9f5764d78706f34c972e8114d8</title>
<text text-anchor="middle" x="123" y="-679.5" font-family="Helvetica,sans-Serif" font-size="10.00">qt</text>
</g>
<!-- dir_f0c29a9f5764d78706f34c972e8114d8&#45;&gt;dir_021c64f412f6b3b6708367bb6d6ca209 -->
<g id="edge1" class="edge">
<title>dir_f0c29a9f5764d78706f34c972e8114d8&#45;&gt;dir_021c64f412f6b3b6708367bb6d6ca209</title>
<path fill="none" stroke="black" d="M130.1,-663.57C134.04,-653.34 138.79,-640.09 142,-628 154.49,-580.89 147.6,-566.86 161,-520 179.97,-453.66 191.87,-439.44 219,-376 222.75,-367.23 227,-357.71 230.87,-349.2"/>
<polygon fill="black" stroke="black" points="234.05,-350.65 235.03,-340.1 227.69,-347.74 234.05,-350.65"/>
<g id="a_edge1&#45;headlabel"><a xlink:href="dir_000022_000007.html" target="_top" xlink:title="4">
<text text-anchor="middle" x="235.14" y="-352.6" font-family="Helvetica,sans-Serif" font-size="10.00">4</text>
</a>
</g>
</g>
<!-- dir_f0c29a9f5764d78706f34c972e8114d8&#45;&gt;dir_18ae7af74d885898b85cbb543ae51b63 -->
<g id="edge2" class="edge">
<title>dir_f0c29a9f5764d78706f34c972e8114d8&#45;&gt;dir_18ae7af74d885898b85cbb543ae51b63</title>
<path fill="none" stroke="black" d="M137.57,-663.63C145.49,-653.64 155.04,-640.6 162,-628 172.99,-608.1 182.23,-584.04 188.46,-565.95"/>
<polygon fill="black" stroke="black" points="191.82,-566.92 191.68,-556.32 185.18,-564.69 191.82,-566.92"/>
<g id="a_edge2&#45;headlabel"><a xlink:href="dir_000022_000017.html" target="_top" xlink:title="9">
<text text-anchor="middle" x="193.37" y="-568.73" font-family="Helvetica,sans-Serif" font-size="10.00">9</text>
</a>
</g>
</g>
<!-- dir_f0c29a9f5764d78706f34c972e8114d8&#45;&gt;dir_1d8fd1f10602b1b3ec6e7b702d4ec182 -->
<g id="edge4" class="edge">
<title>dir_f0c29a9f5764d78706f34c972e8114d8&#45;&gt;dir_1d8fd1f10602b1b3ec6e7b702d4ec182</title>
<path fill="none" stroke="black" d="M150.12,-679.83C212.78,-676.51 364.7,-664.76 397,-628 429.33,-591.2 422.15,-529.53 414.36,-494.15"/>
<polygon fill="black" stroke="black" points="417.68,-493 411.96,-484.08 410.87,-494.61 417.68,-493"/>
<g id="a_edge4&#45;headlabel"><a xlink:href="dir_000022_000013.html" target="_top" xlink:title="2">
<text text-anchor="middle" x="421.27" y="-493.34" font-family="Helvetica,sans-Serif" font-size="10.00">2</text>
</a>
</g>
</g>
<!-- dir_f0c29a9f5764d78706f34c972e8114d8&#45;&gt;dir_6330efc4ea07ccf3cc823ae31c630b06 -->
<g id="edge5" class="edge">
<title>dir_f0c29a9f5764d78706f34c972e8114d8&#45;&gt;dir_6330efc4ea07ccf3cc823ae31c630b06</title>
<path fill="none" stroke="black" d="M122.67,-663.81C122.48,-653.44 122.22,-639.96 122,-628 118.7,-451.26 42.95,-365.33 159,-232 179.24,-208.75 211.7,-195.19 237.46,-187.62"/>
<polygon fill="black" stroke="black" points="238.61,-190.94 247.32,-184.91 236.75,-184.19 238.61,-190.94"/>
<g id="a_edge5&#45;headlabel"><a xlink:href="dir_000022_000038.html" target="_top" xlink:title="1">
<text text-anchor="middle" x="235.89" y="-192.13" font-family="Helvetica,sans-Serif" font-size="10.00">1</text>
</a>
</g>
</g>
<!-- dir_f0c29a9f5764d78706f34c972e8114d8&#45;&gt;dir_b7878ad5ecbf2506f4125b9d34c97e45 -->
<g id="edge6" class="edge">
<title>dir_f0c29a9f5764d78706f34c972e8114d8&#45;&gt;dir_b7878ad5ecbf2506f4125b9d34c97e45</title>
<path fill="none" stroke="black" d="M122.87,-663.63C122.71,-597.2 125.41,-360.26 171,-304 198.82,-269.66 250.27,-257.52 285.54,-253.26"/>
<polygon fill="black" stroke="black" points="286.35,-256.7 295.93,-252.17 285.62,-249.73 286.35,-256.7"/>
<g id="a_edge6&#45;headlabel"><a xlink:href="dir_000022_000021.html" target="_top" xlink:title="32">
<text text-anchor="middle" x="283.07" y="-257.39" font-family="Helvetica,sans-Serif" font-size="10.00">32</text>
</a>
</g>
</g>
<!-- dir_f0c29a9f5764d78706f34c972e8114d8&#45;&gt;dir_bbf56bce9985720f86fc476f3812db24 -->
<g id="edge7" class="edge">
<title>dir_f0c29a9f5764d78706f34c972e8114d8&#45;&gt;dir_bbf56bce9985720f86fc476f3812db24</title>
<path fill="none" stroke="black" d="M116.69,-664C93.87,-602.53 17,-395.45 17,-395 17,-395 17,-395 17,-177 17,-134.81 17.62,-115.04 50,-88 88.01,-56.25 231.58,-42.52 304.68,-37.49"/>
<polygon fill="black" stroke="black" points="305.18,-40.96 314.93,-36.81 304.72,-33.98 305.18,-40.96"/>
<g id="a_edge7&#45;headlabel"><a xlink:href="dir_000022_000018.html" target="_top" xlink:title="2">
<text text-anchor="middle" x="301.78" y="-41.54" font-family="Helvetica,sans-Serif" font-size="10.00">2</text>
</a>
</g>
</g>
<!-- dir_f0c29a9f5764d78706f34c972e8114d8&#45;&gt;dir_dee301ab18d354d094fb7852349ef839 -->
<g id="edge8" class="edge">
<title>dir_f0c29a9f5764d78706f34c972e8114d8&#45;&gt;dir_dee301ab18d354d094fb7852349ef839</title>
<path fill="none" stroke="black" d="M150.22,-679.75C228.77,-675.78 454.31,-661.65 519,-628 566.72,-603.18 601,-592.79 601,-539 601,-539 601,-539 601,-393 601,-281.83 577.95,-247.99 510,-160 500.99,-148.33 488.73,-138.07 476.83,-129.77"/>
<polygon fill="black" stroke="black" points="478.55,-126.71 468.29,-124.08 474.67,-132.54 478.55,-126.71"/>
<g id="a_edge8&#45;headlabel"><a xlink:href="dir_000022_000011.html" target="_top" xlink:title="1">
<text text-anchor="middle" x="483.12" y="-123.84" font-family="Helvetica,sans-Serif" font-size="10.00">1</text>
</a>
</g>
</g>
<!-- dir_f0c29a9f5764d78706f34c972e8114d8&#45;&gt;dir_e91c81f9be83f649fcd1d8691438a113 -->
<g id="edge9" class="edge">
<title>dir_f0c29a9f5764d78706f34c972e8114d8&#45;&gt;dir_e91c81f9be83f649fcd1d8691438a113</title>
<path fill="none" stroke="black" d="M150.3,-672.97C193.05,-660.4 275.85,-636.04 323.94,-621.9"/>
<polygon fill="black" stroke="black" points="325.05,-625.22 333.65,-619.04 323.07,-618.51 325.05,-625.22"/>
<g id="a_edge9&#45;headlabel"><a xlink:href="dir_000022_000015.html" target="_top" xlink:title="14">
<text text-anchor="middle" x="322.4" y="-626.46" font-family="Helvetica,sans-Serif" font-size="10.00">14</text>
</a>
</g>
</g>
<!-- dir_f0c29a9f5764d78706f34c972e8114d8&#45;&gt;dir_ee3f1a7951c308657a65f8199076c1d6 -->
<g id="edge10" class="edge">
<title>dir_f0c29a9f5764d78706f34c972e8114d8&#45;&gt;dir_ee3f1a7951c308657a65f8199076c1d6</title>
<path fill="none" stroke="black" d="M141.19,-663.83C151.67,-653.69 164.92,-640.44 176,-628 203.14,-597.52 213.35,-591.77 233,-556 257.29,-511.76 274.07,-455.01 282.57,-422.06"/>
<polygon fill="black" stroke="black" points="285.99,-422.79 285.03,-412.24 279.2,-421.08 285.99,-422.79"/>
<g id="a_edge10&#45;headlabel"><a xlink:href="dir_000022_000008.html" target="_top" xlink:title="33">
<text text-anchor="middle" x="287.87" y="-424.47" font-family="Helvetica,sans-Serif" font-size="10.00">33</text>
</a>
</g>
</g>
<!-- dir_f0c29a9f5764d78706f34c972e8114d8&#45;&gt;dir_f9a362818448b8ef6661813ae65d7e79 -->
<g id="edge11" class="edge">
<title>dir_f0c29a9f5764d78706f34c972e8114d8&#45;&gt;dir_f9a362818448b8ef6661813ae65d7e79</title>
<path fill="none" stroke="black" d="M150.1,-680.88C209.16,-679.74 352.98,-672.24 463,-628 523.95,-603.49 581,-604.69 581,-539 581,-539 581,-539 581,-465 581,-360.16 507.33,-251.73 470.48,-204.05"/>
<polygon fill="black" stroke="black" points="473.2,-201.83 464.27,-196.13 467.69,-206.16 473.2,-201.83"/>
<g id="a_edge11&#45;headlabel"><a xlink:href="dir_000022_000020.html" target="_top" xlink:title="7">
<text text-anchor="middle" x="477.65" y="-200.41" font-family="Helvetica,sans-Serif" font-size="10.00">7</text>
</a>
</g>
</g>
<!-- dir_f0c29a9f5764d78706f34c972e8114d8&#45;&gt;dir_fe414d616bd0c4668e6515f48824338f -->
<g id="edge12" class="edge">
<title>dir_f0c29a9f5764d78706f34c972e8114d8&#45;&gt;dir_fe414d616bd0c4668e6515f48824338f</title>
<path fill="none" stroke="black" d="M150.25,-680.47C203.14,-678.51 322.41,-669.42 412,-628 468.77,-601.75 521,-601.54 521,-539 521,-539 521,-539 521,-465 521,-424.55 510.67,-378.67 503.03,-350.28"/>
<polygon fill="black" stroke="black" points="506.31,-349 500.26,-340.3 499.56,-350.87 506.31,-349"/>
<g id="a_edge12&#45;headlabel"><a xlink:href="dir_000022_000029.html" target="_top" xlink:title="4">
<text text-anchor="middle" x="510" y="-349.21" font-family="Helvetica,sans-Serif" font-size="10.00">4</text>
</a>
</g>
</g>
<!-- dir_1a129dc36bf3b572d952ea0a26ff97f7 -->
<g id="node14" class="node">
<title>dir_1a129dc36bf3b572d952ea0a26ff97f7</title>
<g id="a_node14"><a xlink:href="dir_1a129dc36bf3b572d952ea0a26ff97f7.html" target="_top" xlink:title="forms">
<polygon fill="white" stroke="black" points="78,-628 24,-628 24,-592 78,-592 78,-628"/>
<text text-anchor="middle" x="51" y="-607.5" font-family="Helvetica,sans-Serif" font-size="10.00">forms</text>
</a>
</g>
</g>
<!-- dir_f0c29a9f5764d78706f34c972e8114d8&#45;&gt;dir_1a129dc36bf3b572d952ea0a26ff97f7 -->
<g id="edge3" class="edge">
<title>dir_f0c29a9f5764d78706f34c972e8114d8&#45;&gt;dir_1a129dc36bf3b572d952ea0a26ff97f7</title>
<path fill="none" stroke="black" d="M105.2,-663.7C96.4,-655.14 85.62,-644.66 76,-635.3"/>
<polygon fill="black" stroke="black" points="78.2,-632.57 68.59,-628.1 73.32,-637.58 78.2,-632.57"/>
<g id="a_edge3&#45;headlabel"><a xlink:href="dir_000022_000028.html" target="_top" xlink:title="19">
<text text-anchor="middle" x="82.76" y="-630.54" font-family="Helvetica,sans-Serif" font-size="10.00">19</text>
</a>
</g>
</g>
<!-- dir_fc4d11c3721a0de115aae0e2156b9470 -->
<g id="node13" class="node">
<title>dir_fc4d11c3721a0de115aae0e2156b9470</title>
<g id="a_node13"><a xlink:href="dir_fc4d11c3721a0de115aae0e2156b9470.html" target="_top" xlink:title="android">
<polygon fill="white" stroke="red" points="78,-700 24,-700 24,-664 78,-664 78,-700"/>
<text text-anchor="middle" x="51" y="-679.5" font-family="Helvetica,sans-Serif" font-size="10.00">android</text>
</a>
</g>
</g>
</g>
</svg>
